<?xml version="1.0" encoding="utf-8"?>
<!-- Svg Vector Icons : http://www.onlinewebfonts.com/icon -->
<!DOCTYPE svg PUBLIC "-//W3C//DTD SVG 1.1//EN" "http://www.w3.org/Graphics/SVG/1.1/DTD/svg11.dtd">
<svg version="1.1" xmlns="http://www.w3.org/2000/svg" xmlns:xlink="http://www.w3.org/1999/xlink" x="0px" y="0px" viewBox="0 0 256 256" enable-background="new 0 0 256 256" xml:space="preserve">
<metadata> Svg Vector Icons : http://www.onlinewebfonts.com/icon </metadata>
<g><g><g><path fill="#000000" d="M59.4,39.2l-7.9,2v1.6c0,0.9,0.2,3.4,0.4,5.6l0.3,4l-2.3,1l-2.2,0.9l-4.8-3.7l-4.7-3.7l-6.5,6.2c-3.6,3.4-6.5,6.3-6.5,6.5s1.4,2.2,3,4.6l3,4.4l-1.4,2c-0.7,1.1-1.5,2-1.7,2c-0.2,0-2.8-0.3-5.9-0.7c-3-0.4-5.6-0.7-5.6-0.6c-0.2,0.2-4.9,16.3-4.9,16.9c0,0.3,2.1,1.5,4.7,2.7c5,2.3,5,2.2,4.4,5.9c-0.3,1.6-0.4,1.7-5.4,3.7c-2.8,1.1-5.2,2.2-5.3,2.3c-0.1,0.1,0.8,4.2,2,9l2.1,8.8l2.8-0.3c1.5-0.1,3.9-0.4,5.3-0.5l2.4-0.3l1.2,2.4l1.2,2.4l-3.6,4.6l-3.6,4.7l5.7,6c3.1,3.3,6,6.2,6.3,6.6c0.6,0.5,1.4,0,5-2.5l4.4-3l2.5,1.6c1.4,0.9,2.7,1.6,2.8,1.6c0.2,0,0.7-0.7,1.2-1.6c1-1.8,1.2-1.6-3.2-4.6l-3.2-2.2l-4,2.8c-2.1,1.5-4.1,2.8-4.3,2.8c-0.5,0-7.5-7.2-7.5-7.7c0-0.1,1.4-2.1,3.2-4.4l3.2-4.1l-2.3-4.8l-2.3-4.7l-5,0.3c-4.6,0.3-5,0.2-5.2-0.6c-1.3-4.8-2.2-9.6-1.9-9.9c0.2-0.2,2.4-1.2,4.9-2.1l4.5-1.8l0.3-4.2c0.2-2.3,0.5-4.7,0.6-5.3c0.2-0.9-0.2-1.3-4.3-3.2c-2.6-1.2-4.7-2.2-4.7-2.2c-0.1-0.1,2.8-9.8,3.1-10.2c0.2-0.2,2.7,0,5.6,0.3c4.9,0.7,5.3,0.7,5.9-0.1c0.3-0.4,0.7-0.9,0.7-1.1s1.1-1.7,2.4-3.4l2.4-3.2l-2.9-4.1c-1.6-2.3-2.8-4.4-2.7-4.8c0.1-0.3,1.9-2,4-3.9l3.7-3.4l4.3,3.4l4.4,3.4l4.6-2.1l4.6-2.1l-0.3-5.4l-0.3-5.4l4.4-1.1c2.5-0.6,4.8-1.2,5.3-1.3c0.7-0.2,1.2,0.6,2.8,4.6c1.1,2.7,2.1,5,2.3,5.3c0.2,0.3,2.4,0.6,5.3,0.7l4.9,0.2l2.2-4.6c1.2-2.5,2.5-4.6,2.7-4.6c0.6,0,9.7,2.7,9.9,3c0.1,0.1-0.1,2.6-0.6,5.5c-0.7,5-0.7,5.3,0.1,5.9c0.5,0.3,2.2,1.5,3.8,2.6c1.6,1.1,3.2,2.1,3.5,2.4c0.4,0.3,2-0.6,4.7-2.5l4.1-2.9l3.9,3.9l3.9,3.9l-2.4,3.2l-2.5,3.1l1.4,1.1c0.7,0.7,1.6,1.1,1.8,1.2c0.3,0,2-2,3.8-4.4l3.4-4.4l-6.4-6.6L112,52l-4.3,3.1l-4.3,3.1l-2-1.3c-1.2-0.7-2.1-1.6-2.1-2c0-0.4,0.3-3,0.7-5.8c0.4-2.8,0.6-5.2,0.4-5.4c-0.3-0.3-16.3-5.1-17-5.1c-0.1,0-1.3,2.2-2.5,4.9l-2.2,4.9h-2.5h-2.4l-1.5-3.6c-2.9-7.1-3.2-7.5-4.1-7.5C67.7,37.2,63.8,38.1,59.4,39.2z"/><path fill="#000000" d="M138.3,57.9v3h-2.8h-2.8V63v2.1h2.8h2.8v2.8v2.8h2.1h2.1v-2.8v-2.7l2.9-0.1l2.9-0.1l0.1-2l0.1-2l-2.9-0.1l-2.9-0.1l-0.1-2.9l-0.1-2.9h-2h-2.1V57.9z"/><path fill="#000000" d="M68,63.2c-15,1.8-27.4,12.6-31.5,27.5c-1.2,4.1-1.2,13.5,0,17.6c1.6,5.7,5.3,12.4,8.5,15.6l1.4,1.3l1.3-1.4l1.3-1.4l-2.4-3.1c-5-6.5-6.8-11.9-6.8-20c0-4.7,0.2-6.1,1.3-9.3c4.9-15,20-24.7,35.2-22.6c5.8,0.8,12.9,3.6,16,6.4c0.7,0.7,0.9,0.6,1.8-0.2c2.2-2,2.1-2.4-1.3-4.6C85.4,64.3,76.5,62.2,68,63.2z"/><path fill="#000000" d="M89.2,80.3c-1.5,0.4-3,1.6-3.8,3c-0.5,1-0.7,3.3-0.7,10v8.6h2.1h2.1v-8.4c0-7.8,0-8.4,0.9-8.8c0.6-0.3,25.1-0.5,75.9-0.5h75l0.7,1c0.7,0.9,0.7,6.8,0.7,54.3c0,52.6,0,53.2-0.9,54.2c-0.9,0.9-1.5,0.9-63.1,0.9H116v2.1v2.1h13.3h13.3v4.2v4.2H138c-7,0-8.1,0.9-8.1,7.3v4.3h35.6h35.6v-3.5c0-6.8-1.5-8.2-8.6-8.2h-4.4V203v-4.1l26.9-0.1c24.8-0.1,27-0.2,28.2-1c2.9-1.9,2.7,2.4,2.7-58.3c0-60.7,0.2-56.4-2.7-58.3c-1.2-0.8-5.5-0.8-77.2-0.9C124.3,80.1,89.7,80.2,89.2,80.3z M184.1,203l-0.1,4.2h-18.6h-18.6V203v-4.2h18.8h18.7L184.1,203z M196.9,213.1l0.1,1.5h-31.4h-31.5V213v-1.6l31.3,0.1l31.3,0.1L196.9,213.1z"/><path fill="#000000" d="M94.5,95.8v6.1h2.1h2.1v-4v-4h66.8h66.8v37.7v37.7h-58.2H116v2.1v2.1h60.3h60.3v-41.9V89.8h-71h-71V95.8z"/><path fill="#000000" d="M129.9,111.7v9.8h37.5h37.5v-9.8v-9.8h-37.5h-37.5V111.7z M200.7,111.7v5.6h-33.3h-33.3v-5.6v-5.6h33.3h33.3V111.7z"/><path fill="#000000" d="M60.4,108.5c-1.2,0.3-2.7,1.3-4.1,2.7c-1.7,1.7-2.3,2.7-2.7,4.7c-0.4,1.9-0.5,14.4-0.4,47.2c0.1,42.6,0.2,44.8,1,46.3c1.2,2.3,2.6,3.7,4.7,4.8c1.8,1,2.4,1,21.2,1.2c22.7,0.2,23.3,0.1,26.5-3.1c1.3-1.3,2.4-2.9,2.7-4.1c0.4-1.4,0.6-6.9,0.6-19.2v-17.3h-2.1h-2.1V189c0,19.7,0,19.7-3.5,21.4c-1.9,0.9-2.6,1-21.3,0.8c-18.7-0.1-19.4-0.2-20.7-1.1c-0.7-0.5-1.7-1.7-2.1-2.6c-0.8-1.5-0.8-4.6-0.8-45.7c0-47.8-0.1-45.9,2.6-48.3l1.3-1.2l19.8-0.1c18.6-0.1,20,0,21.5,0.7c2.9,1.5,3.3,3.1,3.3,11.4v7.4h2.1h2.1v-7.4c0-8.5-0.5-10.5-3.1-13.2c-3-3.1-3.5-3.2-25.2-3.1C69.8,108,61.5,108.2,60.4,108.5z"/><path fill="#000000" d="M71.7,117.5v2.1l8.5-0.1l8.5-0.1l0.1-2l0.1-2h-8.6h-8.7V117.5z"/><path fill="#000000" d="M60.1,159.4V195h21.4h21.4v-11.6v-11.6h-2.1h-2.1v9.5v9.5H81.5H64.3v-31.4V128h17.2h17.2v4.5v4.4l2-0.1l2-0.1l0.1-6.4l0.1-6.4H81.5H60.1L60.1,159.4L60.1,159.4z"/><path fill="#000000" d="M182.1,136.6V148h11.4h11.4v-11.4v-11.4h-11.4h-11.4V136.6L182.1,136.6z M200.7,136.6v7.2h-7.2h-7.2v-7.2v-7.2h7.2h7.2V136.6z"/><path fill="#000000" d="M131.8,129.1v2.1l21.6-0.1l21.5-0.1l0.1-2l0.1-2h-21.7h-21.7L131.8,129.1L131.8,129.1z"/><path fill="#000000" d="M66.6,140.1v9.8h14.7h14.7v-9.8v-9.8H81.3H66.6V140.1z M91.7,140.1v5.6H81.3H70.8v-5.6v-5.6h10.5h10.5V140.1z"/><path fill="#000000" d="M131.8,136.1v2.1h21.7h21.7v-2.1V134h-21.7h-21.7V136.1z"/><path fill="#000000" d="M100.7,146.7l0.1,2h37h37l0.1-2l0.1-2h-37.3h-37.3L100.7,146.7z"/><path fill="#000000" d="M67.1,156.6v2l13.4,0.1c7.4,0.1,24.7,0.1,38.7,0l25.2-0.1v-2v-2.1h-38.7H67.1V156.6z"/><path fill="#000000" d="M151.4,156.6v2.1h6.3h6.3v-2.1v-2.1h-6.3h-6.3V156.6z"/><path fill="#000000" d="M170.9,156.6v2.1h6.3h6.3v-2.1v-2.1h-6.3h-6.3V156.6z"/><path fill="#000000" d="M190.3,154.8c-0.2,0.2-0.3,1.2-0.3,2.1v1.8h6.6h6.5l-0.1-2l-0.1-2l-6.1-0.1C193.4,154.6,190.5,154.7,190.3,154.8z"/><path fill="#000000" d="M67.2,165.3l0.1,2l13.9,0.1l13.8,0.1v-2.1v-2.1H81H67L67.2,165.3z"/><path fill="#000000" d="M67.1,172.5v2.1h14h14v-2.1v-2.1H81h-14V172.5z"/><path fill="#000000" d="M159.9,177.3c-4.7,2.1-5.6,8-1.8,11.7c1.6,1.5,1.9,1.6,4.9,1.6s3.3-0.1,4.9-1.6c3.8-3.7,2.9-9.5-1.8-11.7C163.7,176.2,162.3,176.2,159.9,177.3z M164.4,181.1c2.2,1.2,1.9,4.8-0.4,5.4c-2.7,0.7-4.8-1.4-3.9-3.7C160.9,180.8,162.7,180.1,164.4,181.1z"/><path fill="#000000" d="M78.9,196.6c-0.7,0.3-1.9,1.2-2.6,1.9c-1,1-1.2,1.7-1.2,4.2c0,2.5,0.2,3.1,1.2,4.2c2.4,2.6,5.3,3.2,8.2,1.8c3.5-1.7,4.7-7,2.2-10C84.6,196.2,81.7,195.4,78.9,196.6z M83.1,200.9c1.6,1.6,0.5,4.4-1.8,4.4c-1.9,0-2.7-2.7-1.4-4.3C80.9,200,82.1,199.9,83.1,200.9z"/></g></g></g>
</svg>